<?xml version="1.0" encoding="UTF-8" standalone="no"?>
<svg
   xmlns:dc="http://purl.org/dc/elements/1.1/"
   xmlns:cc="http://creativecommons.org/ns#"
   xmlns:rdf="http://www.w3.org/1999/02/22-rdf-syntax-ns#"
   xmlns:svg="http://www.w3.org/2000/svg"
   xmlns="http://www.w3.org/2000/svg"
   xmlns:sodipodi="http://sodipodi.sourceforge.net/DTD/sodipodi-0.dtd"
   xmlns:inkscape="http://www.inkscape.org/namespaces/inkscape"
   version="1.0"
   width="180.000000pt"
   height="180.000000pt"
   viewBox="0 0 180.000000 180.000000"
   preserveAspectRatio="xMidYMid meet"
   id="svg12"
   sodipodi:docname="safari-pinned-tab.svg"
   inkscape:version="0.92.4 5da689c313, 2019-01-14">
  <defs
     id="defs16" />
  <sodipodi:namedview
     pagecolor="#ffffff"
     bordercolor="#666666"
     borderopacity="1"
     objecttolerance="10"
     gridtolerance="10"
     guidetolerance="10"
     inkscape:pageopacity="0"
     inkscape:pageshadow="2"
     inkscape:window-width="1876"
     inkscape:window-height="1011"
     id="namedview14"
     showgrid="false"
     inkscape:zoom="0.98333333"
     inkscape:cx="-54.915254"
     inkscape:cy="120"
     inkscape:window-x="1939"
     inkscape:window-y="19"
     inkscape:window-maximized="0"
     inkscape:current-layer="svg12" />
  <metadata
     id="metadata2">
Created by potrace 1.16, written by Peter Selinger 2001-2019
<rdf:RDF>
  <cc:Work
     rdf:about="">
    <dc:format>image/svg+xml</dc:format>
    <dc:type
       rdf:resource="http://purl.org/dc/dcmitype/StillImage" />
  </cc:Work>
</rdf:RDF>
</metadata>
  <g
     transform="translate(0.000000,180.000000) scale(0.100000,-0.100000)"
     fill="#000000"
     stroke="none"
     id="g10"
     style="fill:#1b7872;fill-opacity:1">
    <path
       d="M0 900 l0 -900 900 0 900 0 0 900 0 900 -900 0 -900 0 0 -900z m670 332 c47 -25 80 -90 80 -158 0 -54 -34 -185 -69 -267 -26 -60 -35 -117 -22 -136 8 -12 15 -11 45 10 20 13 38 31 41 40 8 24 44 59 61 59 8 0 25 -23 38 -52 12 -29 30 -59 38 -66 22 -18 88 -28 88 -13 0 6 -29 42 -64 80 -80 88 -92 140 -48 209 35 54 149 80 211 47 32 -16 41 -33 41 -77 0 -27 -27 -88 -40 -88 -3 0 -13 -7 -24 -15 -18 -14 -17 -16 14 -51 29 -34 32 -42 27 -88 -3 -38 -11 -55 -31 -72 -66 -57 -222 -59 -282 -3 l-22 21 -31 -23 c-44 -33 -137 -39 -171 -11 -22 18 -25 28 -24 84 1 34 8 87 17 117 10 30 16 56 14 57 -1 2 -43 6 -93 10 -107 8 -99 17 -109 -131 -3 -49 -8 -100 -11 -112 -9 -46 -113 -72 -134 -34 -14 28 -12 97 6 186 9 42 14 78 12 80 -1 2 -27 -1 -57 -6 -78 -12 -91 1 -43 46 15 14 52 33 83 43 l57 16 41 84 c45 91 123 182 181 213 47 24 134 25 180 1z m706 -13 c32 -36 24 -111 -19 -190 -49 -87 -49 -112 -2 -71 64 56 170 50 211 -12 19 -30 15 -119 -10 -218 -8 -34 -10 -60 -5 -64 5 -3 35 20 67 50 33 31 64 56 70 56 21 0 13 -62 -13 -106 -20 -33 -40 -50 -94 -77 -114 -57 -153 -33 -152 95 0 40 5 89 11 108 17 59 13 98 -11 105 -31 10 -69 -21 -103 -85 -25 -46 -29 -65 -30 -137 -1 -90 -9 -106 -63 -120 -61 -15 -77 26 -68 167 7 115 23 202 55 297 22 66 76 190 92 211 15 18 43 15 64 -9z"
       id="path4"
       style="fill:#1b7872;fill-opacity:1" />
    <path
       d="M526 1119 c-51 -14 -107 -82 -130 -156 -7 -23 -7 -23 97 -23 l104 0 13 59 c10 48 10 64 -1 86 -17 34 -44 45 -83 34z"
       id="path6"
       style="fill:#1b7872;fill-opacity:1" />
    <path
       d="M950 902 c0 -11 9 -30 20 -43 20 -24 20 -24 35 -4 25 32 15 59 -22 63 -27 3 -33 0 -33 -16z"
       id="path8"
       style="fill:#1b7872;fill-opacity:1" />
  </g>
</svg>
