<?xml version="1.0" encoding="UTF-8" standalone="no"?>
<svg
   xmlns:dc="http://purl.org/dc/elements/1.1/"
   xmlns:cc="http://creativecommons.org/ns#"
   xmlns:rdf="http://www.w3.org/1999/02/22-rdf-syntax-ns#"
   xmlns:svg="http://www.w3.org/2000/svg"
   xmlns="http://www.w3.org/2000/svg"
   xmlns:sodipodi="http://sodipodi.sourceforge.net/DTD/sodipodi-0.dtd"
   xmlns:inkscape="http://www.inkscape.org/namespaces/inkscape"
   version="1.0"
   width="88.000000pt"
   height="88.000000pt"
   viewBox="0 0 88.000000 88.000000"
   preserveAspectRatio="xMidYMid meet"
   id="svg12"
   sodipodi:docname="logo.svg"
   inkscape:version="0.92.4 5da689c313, 2019-01-14">
  <defs
     id="defs16" />
  <sodipodi:namedview
     pagecolor="#ffffff"
     bordercolor="#666666"
     borderopacity="1"
     objecttolerance="10"
     gridtolerance="10"
     guidetolerance="10"
     inkscape:pageopacity="1"
     inkscape:pageshadow="2"
     inkscape:window-width="1876"
     inkscape:window-height="1011"
     id="namedview14"
     showgrid="false"
     inkscape:zoom="2.0113636"
     inkscape:cx="-114.84746"
     inkscape:cy="58.666666"
     inkscape:window-x="1939"
     inkscape:window-y="19"
     inkscape:window-maximized="0"
     inkscape:current-layer="svg12" />
  <metadata
     id="metadata2">
Created by potrace 1.16, written by Peter Selinger 2001-2019
<rdf:RDF>
  <cc:Work
     rdf:about="">
    <dc:format>image/svg+xml</dc:format>
    <dc:type
       rdf:resource="http://purl.org/dc/dcmitype/StillImage" />
    <dc:title></dc:title>
  </cc:Work>
</rdf:RDF>
</metadata>
  <g
     inkscape:groupmode="layer"
     id="layer3"
     inkscape:label="TextColor"
     style="display:inline">
    <rect
       style="fill:#f48fb1;fill-opacity:1;stroke-width:0.64945436"
       id="rect822"
       width="82.406776"
       height="71.966095"
       x="2.9830506"
       y="10.067797" />
  </g>
  <g
     inkscape:groupmode="layer"
     id="layer2"
     inkscape:label="Forground"
     style="display:inline">
    <g
       transform="matrix(0.1,0,0,-0.1,0,88.000003)"
       id="g10"
       style="fill:#1b7872;fill-opacity:1;stroke:none">
      <path
         d="M 0,440 V 0 H 440 880 V 440 880 H 440 0 Z m 341,151 c 31,-25 31,-93 1,-174 -12,-32 -22,-64 -22,-72 0,-24 28,-17 46,10 21,32 30,31 48,-4 14,-27 43,-47 54,-37 2,3 -10,22 -27,43 -36,44 -40,84 -11,113 22,22 79,27 98,8 17,-17 15,-58 -5,-80 -13,-14 -14,-21 -5,-30 7,-7 12,-24 12,-40 0,-41 -37,-62 -97,-54 -64,8 -82,8 -120,1 -44,-10 -66,23 -53,80 5,22 10,43 10,48 0,4 -20,7 -44,7 h -45 l -7,-57 c -8,-68 -17,-83 -52,-83 -25,0 -25,0 -19,70 l 6,69 -31,-6 c -42,-8 -34,16 16,42 24,13 47,38 66,71 16,29 42,61 57,73 36,26 93,27 124,2 z m 337,-24 c 2,-22 -3,-46 -12,-59 -26,-37 -20,-49 13,-30 23,13 36,14 58,6 27,-10 28,-11 27,-82 -1,-40 1,-72 4,-72 3,0 19,12 34,27 l 28,27 v -26 c 0,-27 -42,-71 -80,-83 -39,-12 -52,12 -48,89 2,56 0,71 -11,71 -24,0 -53,-51 -57,-101 -4,-53 -13,-68 -40,-62 -17,3 -19,13 -18,88 1,152 91,334 102,207 z"
         id="path4"
         style="fill:#1b7872;fill-opacity:1"
         inkscape:connector-curvature="0" />
      <path
         d="m 226,525 c -13,-14 -26,-34 -29,-45 -5,-18 0,-20 44,-20 43,0 49,3 55,24 15,63 -27,88 -70,41 z"
         id="path6"
         style="fill:#1b7872;fill-opacity:1"
         inkscape:connector-curvature="0" />
      <path
         d="m 472,434 c 4,-21 22,-23 26,-1 2,10 -3,17 -13,17 -10,0 -15,-6 -13,-16 z"
         id="path8"
         style="fill:#1b7872;fill-opacity:1"
         inkscape:connector-curvature="0" />
    </g>
  </g>
</svg>
